<?xml version="1.0" standalone="no"?>
<!DOCTYPE svg PUBLIC "-//W3C//DTD SVG 20010904//EN"
 "http://www.w3.org/TR/2001/REC-SVG-20010904/DTD/svg10.dtd">
<svg version="1.0" xmlns="http://www.w3.org/2000/svg"
 width="450.000000pt" height="450.000000pt" viewBox="0 0 450.000000 450.000000"
 preserveAspectRatio="xMidYMid meet">
<metadata>
Created by potrace 1.11, written by Peter Selinger 2001-2013
</metadata>
<g transform="translate(0.000000,450.000000) scale(0.100000,-0.100000)"
fill="#000000" stroke="none">
<path d="M505 3468 c-3 -7 -4 -533 -3 -1168 l3 -1155 3 1163 2 1162 120 0 c66
0 120 -4 120 -9 0 -5 8 -12 17 -15 15 -6 15 -4 -2 14 -16 18 -30 20 -137 20
-86 0 -120 -3 -123 -12z"/>
<path d="M2417 3473 c-4 -3 -7 -529 -7 -1167 0 -915 3 -1166 13 -1186 12 -24
16 -25 137 -28 109 -2 126 0 137 15 10 13 13 135 13 540 l0 523 528 0 c397 0
531 3 540 12 8 8 12 47 12 110 0 87 -2 98 -20 108 -11 6 -20 7 -20 1 0 -5 7
-12 15 -15 13 -5 15 -23 13 -103 l-3 -98 -537 -3 c-296 -1 -539 -3 -540 -5 -2
-1 -5 -243 -8 -537 l-5 -535 -115 -3 c-109 -3 -115 -2 -132 20 -17 22 -18 92
-18 1186 l0 1162 760 0 c418 0 760 -3 760 -8 0 -4 10 -12 22 -17 20 -9 21 -17
19 -100 -1 -49 3 -97 9 -105 7 -11 10 16 10 87 l0 102 -33 25 -34 26 -755 0
c-415 0 -758 -3 -761 -7z"/>
<path d="M787 3430 c-4 -8 -6 -478 -5 -1045 l3 -1030 650 0 650 0 -642 2 -643
3 -2 1043 c-2 573 -6 1035 -11 1027z"/>
<path d="M740 2391 c0 -920 2 -1041 15 -1041 13 0 15 119 13 1037 -2 818 -6
1037 -15 1041 -10 3 -13 -209 -13 -1037z"/>
<path d="M3940 3346 l0 -86 -645 0 -645 0 0 -425 c0 -273 4 -425 10 -425 6 0
11 149 12 413 l3 412 645 5 645 5 0 89 c0 63 -4 91 -12 94 -10 3 -13 -18 -13
-82z"/>
<path d="M2695 3198 c-3 -13 -4 -194 -3 -403 l3 -380 525 0 525 0 -517 2 -518
3 0 395 0 395 633 3 632 2 -637 3 -638 2 -5 -22z"/>
<path d="M3740 2295 l0 -75 -545 0 -545 0 -2 -537 -3 -538 -97 -3 c-135 -4
-125 -22 12 -22 l110 0 2 533 3 532 540 5 540 5 3 88 c2 55 -1 87 -8 87 -6 0
-10 -30 -10 -75z"/>
<path d="M2108 1333 c21 -18 23 -25 20 -123 l-3 -105 -797 -3 -797 -2 -6 21
c-4 11 -9 18 -12 16 -2 -3 0 -15 7 -26 l11 -21 793 0 c667 0 795 2 805 14 8 9
11 49 9 116 -3 97 -4 103 -28 118 l-25 14 23 -19z"/>
<path d="M2080 1226 l0 -86 -765 0 c-503 0 -765 -3 -765 -10 0 -7 267 -10 780
-10 l781 0 -3 92 c-2 62 -7 93 -15 96 -10 3 -13 -18 -13 -82z"/>
</g>
</svg>
